HIERARCHY
ROOT hip
{
	OFFSET 0.000000 0.000000 0.000000 
	CHANNELS 6 Xposition Yposition Zposition Xrotation Zrotation Yrotation
	JOINT abdomen
	{
		OFFSET 0.000000 3.402643 0.000000 
		CHANNELS 3 Xrotation Zrotation Yrotation
		JOINT chest
		{
			OFFSET 0.000000 8.438565 -0.680529 
			CHANNELS 3 Xrotation Zrotation Yrotation
			JOINT neck
			{
				OFFSET 0.000000 10.207942 -0.272212 
				CHANNELS 3 Xrotation Zrotation Yrotation
				JOINT head
				{
					OFFSET 0.000000 3.130431 0.000000 
					CHANNELS 3 Xrotation Zrotation Yrotation
					End Site
					{
						OFFSET 0.000000 3.130435 0.000000 
					}
				}
			}
			JOINT lCollar
			{
				OFFSET 3.470700 6.669187 -0.816635 
				CHANNELS 3 Yrotation Zrotation Xrotation
				JOINT lShldr
				{
					OFFSET 3.198488 0.000000 0.000000 
					CHANNELS 3 Zrotation Yrotation Xrotation
					JOINT lForeArm
					{
						OFFSET 10.139888 0.000000 0.000000 
						CHANNELS 3 Yrotation Zrotation Xrotation
						JOINT lHand
						{
							OFFSET 8.370511 0.000000 0.000000 
							CHANNELS 3 Zrotation Yrotation Xrotation
							End Site
							{
								OFFSET 4.083176 0.000000 0.000000 
							}
						}
					}
				}
			}
			JOINT rCollar
			{
				OFFSET -3.470700 6.669187 -0.816635 
				CHANNELS 3 Yrotation Zrotation Xrotation
				JOINT rShldr
				{
					OFFSET -3.198488 0.000000 0.000000 
					CHANNELS 3 Zrotation Yrotation Xrotation
					JOINT rForeArm
					{
						OFFSET -10.139888 0.000000 0.000000 
						CHANNELS 3 Yrotation Zrotation Xrotation
						JOINT rHand
						{
							OFFSET -8.370511 0.000000 0.000000 
							CHANNELS 3 Zrotation Yrotation Xrotation
							End Site
							{
								OFFSET -4.083176 0.000000 0.000000 
							}
						}
					}
				}
			}
		}
	}
	JOINT lThigh
	{
		OFFSET 5.308129 -1.633274 1.361059 
		CHANNELS 3 Xrotation Zrotation Yrotation
		JOINT lShin
		{
			OFFSET -2.041588 -20.007561 0.000000 
			CHANNELS 3 Xrotation Zrotation Yrotation
			JOINT lFoot
			{
				OFFSET 0.000000 -19.190928 -1.224953 
				CHANNELS 3 Xrotation Yrotation Zrotation
				End Site
				{
					OFFSET 0.000000 -2.449906 4.627600 
				}
			}
		}
	}
	JOINT rThigh
	{
		OFFSET -5.308129 -1.633274 1.361059 
		CHANNELS 3 Xrotation Zrotation Yrotation
		JOINT rShin
		{
			OFFSET 2.041588 -20.007561 0.000000 
			CHANNELS 3 Xrotation Zrotation Yrotation
			JOINT rFoot
			{
				OFFSET 0.000000 -19.190928 -1.224953 
				CHANNELS 3 Xrotation Yrotation Zrotation
				End Site
				{
					OFFSET 0.000000 -2.449906 4.627600 
				}
			}
		}
	}
}
MOTION
Frames: 9
Frame Time: 0.016667
2.137913 48.037220 2.301998 -6.211561 7.807862 -77.324615 10.558432 -3.367372 -1.859147 -13.124069 -8.935982 4.635101 36.983490 4.531237 0.137835 -28.583416 6.675934 33.588757 17.273777 25.814295 16.261240 -24.109314 -18.041855 -8.900915 -122.490730 -8.945127 23.999813 -67.924568 -40.599209 34.199589 -13.270454 -3.923948 23.583378 12.223619 6.555694 79.457047 119.050003 -76.375259 68.218063 38.737740 64.770004 28.764069 -6.481032 3.618984 18.094461 30.690697 -0.016780 -1.186180 -14.581814 -2.240356 2.318578 -12.438334 -8.376972 -0.956672 53.783134 6.140078 5.254671 -0.793672 -3.261145 18.391420 
2.100242 47.935421 2.456861 -7.277535 7.143799 -78.186134 10.558432 -3.367372 -1.859147 -12.823358 -9.599691 4.506411 37.264008 4.335929 0.107853 -28.667534 6.909237 34.248299 17.692175 25.579786 16.120777 -22.528006 -18.613811 -9.633470 -121.837952 -8.656002 23.624075 -68.627319 -40.323990 34.942516 -13.173559 -3.142187 23.794636 12.512597 6.050233 79.856987 117.887695 -77.349449 66.593849 40.648739 64.432762 30.678621 -6.023429 2.605543 17.797663 31.831629 0.207717 -1.173168 -15.238073 -1.072153 2.017287 -10.805782 -9.556220 -1.402799 53.590435 5.780862 5.156740 -1.491634 -1.812322 18.530327 
2.200574 47.860840 2.565223 -8.475084 6.620667 -79.199913 10.558432 -3.367372 -1.859147 -12.084907 -10.370968 4.357579 37.132645 3.652342 0.059097 -28.677444 7.367811 34.949814 18.046839 24.917309 16.147184 -22.350071 -18.880005 -9.707057 -121.517128 -8.505225 24.048347 -68.406799 -39.277382 33.344173 -12.601760 -2.635685 23.952271 13.804968 6.870507 80.736832 116.513725 -79.736359 67.738808 38.535583 64.454910 27.908197 -5.656683 1.332052 17.432251 32.356594 0.388693 -1.154364 -15.490485 0.298494 1.880061 -11.567094 -10.415098 -1.644701 56.230469 4.443272 5.171795 -1.412392 -1.326709 17.875298 
2.300950 47.786274 2.673510 -9.672991 6.083780 -80.194389 10.558432 -3.367372 -1.859147 -11.340484 -11.142619 4.199912 37.002964 2.968750 0.020011 -28.683882 7.815976 35.664585 18.398224 24.259109 16.183813 -22.157518 -19.147806 -9.796659 -121.193771 -8.342029 24.472975 -68.224396 -38.234810 31.786713 -12.028633 -2.135661 24.108782 15.111806 7.685300 81.631729 115.132439 -82.140022 68.842659 36.427586 64.432610 25.141661 -5.283000 0.068316 17.029963 32.861008 0.558863 -1.145857 -15.752798 1.698074 1.776384 -12.329468 -11.274974 -1.865255 58.854271 3.115095 5.109724 -1.335124 -0.816278 17.209257 
2.488519 47.739243 2.629879 -9.773297 5.805667 -81.308105 10.558432 -3.367372 -1.859147 -10.613324 -11.005856 4.226797 36.560745 2.060546 -0.048797 -28.598677 8.323777 36.252602 18.415998 23.783861 16.315496 -23.586983 -19.252153 -9.107956 -120.398842 -8.432527 25.785011 -68.225021 -38.106899 31.429317 -11.364349 -2.018029 24.156996 17.413507 9.685309 82.852425 104.266922 -84.842453 60.771111 38.950649 64.972214 28.294487 -5.317546 0.300131 17.096418 33.275375 0.275768 -1.210417 -15.962521 2.544759 1.826371 -15.004548 -10.474930 -1.482193 62.830090 1.785976 5.233814 -0.553741 -1.421032 16.013275 
2.676121 47.692226 2.586215 -9.868464 5.522958 -82.424370 10.558432 -3.367372 -1.859147 -9.887902 -10.868961 4.265161 36.111122 1.152342 -0.107400 -28.510160 8.838492 36.846703 18.422581 23.309259 16.457989 -25.004541 -19.346708 -8.429914 -119.605766 -8.497942 27.102423 -68.214409 -37.981339 31.056639 -10.699783 -1.901744 24.211519 19.768597 11.634922 84.169167 75.925476 -87.137680 35.228069 41.566196 65.446205 31.539509 -5.374770 0.533448 17.154337 33.666550 0.002003 -1.312547 -16.174814 3.421461 1.885821 -17.661592 -9.655800 -1.170004 66.800484 0.429920 5.256380 0.209715 -1.988067 14.813455 
2.927499 47.680588 2.478679 -9.742129 5.825933 -82.829933 10.558432 -3.367372 -1.859147 -9.337714 -10.800654 4.274756 35.389900 0.224608 -0.185545 -28.349255 9.356730 37.149143 18.005301 23.100798 16.715755 -27.436743 -19.810379 -7.259378 -118.232033 -8.949594 29.288919 -68.142433 -38.237640 31.085745 -10.164069 -2.206341 24.188673 22.950438 14.149210 85.703835 15.010016 -86.563858 -22.959415 45.958633 65.483063 36.663132 -6.075966 0.902685 17.249474 33.822197 -0.128888 -1.365836 -16.081810 3.519110 1.692919 -21.251677 -8.248897 -0.545455 70.619576 -0.556390 5.429615 0.817888 -3.109064 13.999481 
3.178876 47.668980 2.371087 -9.607934 6.130679 -83.232712 10.558432 -3.367372 -1.859147 -8.786760 -10.722611 4.282531 34.680733 -0.703119 -0.244242 -28.168579 9.879951 37.445583 17.590261 22.889290 16.970280 -29.883348 -20.233871 -6.056912 -116.841316 -9.367961 31.489365 -68.059143 -38.498997 31.114523 -9.619657 -2.507648 24.165695 26.226900 16.576790 87.394302 -10.806650 -84.042633 -46.058651 50.295151 65.357193 41.724274 -6.800061 1.255335 17.331345 33.958603 -0.261358 -1.399685 -16.006155 3.626302 1.506636 -24.798433 -6.804969 -0.030766 74.451485 -1.571903 5.531485 1.408552 -4.212389 13.247915 
3.430577 47.716915 2.160344 -8.741043 6.561740 -82.698608 10.558432 -3.367372 -1.859147 -8.124311 -10.253852 4.375059 33.893139 -1.298812 -0.283352 -27.930950 10.276553 37.489048 16.946499 23.003992 17.227810 -33.233070 -21.708847 -4.455018 -114.355896 -10.199703 34.764961 -67.425896 -39.013371 30.944595 -9.274617 -2.772182 24.139139 29.939875 18.584707 89.252327 -19.691711 -80.620735 -51.978298 51.000912 65.075935 42.871990 -7.840769 2.333377 17.631302 34.076015 -0.066062 -1.358602 -15.824546 2.511653 1.131636 -27.821709 -4.882662 0.759601 76.366623 -1.025242 5.803432 1.856738 -4.815998 12.790703 
